<svg xmlns="http://www.w3.org/2000/svg" xmlns:xlink="http://www.w3.org/1999/xlink" viewBox="0 0 95.481 58.37488373927512" height="58.37488373927512" width="95.481" data-background-color="#ffffff" preserveAspectRatio="xMidYMid meet" id="tight-bounds"><g><svg viewBox="0 0 95.481 58.37488373927512" height="58.37488373927512" width="95.481"><g><svg viewBox="0 0 95.481 58.37488373927512" height="58.37488373927512" width="95.481"><g><svg viewBox="0 0 95.481 58.37488373927512" height="58.37488373927512" width="95.481"><g><svg viewBox="0 0 95.481 58.37488373927512" height="58.37488373927512" width="95.481"><g><svg viewBox="0 0 95.481 58.37488373927512" height="58.37488373927512" width="95.481"><g><svg xmlns="http://www.w3.org/2000/svg" xmlns:xlink="http://www.w3.org/1999/xlink" version="1.1" x="0" y="0" viewBox="9.039999961853027 25.45800018310547 81.91999816894531 50.08399963378906" enable-background="new 0 0 100 100" xml:space="preserve" height="58.37488373927512" width="95.481" class="icon-icon-0" data-fill-palette-color="accent" id="icon-0" fill="#000000"><path d="M81.268 25.458H18.562c-1.573 0-2.853 1.272-2.853 2.846v37.172c0 1.573 1.279 2.847 2.853 2.847h62.704c1.573 0 2.854-1.272 2.854-2.847V28.305C84.119 26.731 82.84 25.458 81.268 25.458zM50.031 26.252c0.882 0 1.594 0.718 1.594 1.601 0 0.882-0.712 1.594-1.594 1.594-0.882 0-1.601-0.711-1.601-1.594C48.43 26.97 49.148 26.252 50.031 26.252zM80.016 60.859c0 1.574-1.279 2.847-2.854 2.847H22.667c-1.573 0-2.853-1.272-2.853-2.847V33.264c0-1.574 1.279-2.846 2.853-2.846h54.495c1.572 0 2.854 1.272 2.854 2.846V60.859z" fill="#000000" data-fill-palette-color="accent"/><path d="M90.96 70.639c0 3.264-2.642 4.903-5.897 4.903H14.944c-3.263 0-5.904-1.642-5.904-4.903h27.924c0.691 0.719 1.663 1.17 2.744 1.17h18.36c1.08 0 2.053-0.451 2.744-1.17H90.96z" fill="#000000" data-fill-palette-color="accent"/><path d="M65.76 43.83l-0.14 0.34-1.94 4.6-1.21 2.89L62.32 52h2.439l0.141-0.33 1.93-4.61 1.22-2.9 0.141-0.33H65.76zM72.06 43.83l-2.069 4.93-1.221 2.9L68.62 52h2.439l0.15-0.34 3.29-7.83H72.06zM71.21 51.66l-1.22-2.9-1.94-4.6-0.14-0.33h-2.44l0.15 0.34 1.21 2.89 1.939 4.6L68.91 52h2.439L71.21 51.66zM64.9 51.67l-1.221-2.9-2.08-4.94h-2.43l3.3 7.83L62.61 52h2.43L64.9 51.67zM48.76 43.83l-0.14 0.34-1.94 4.6-1.21 2.89L45.32 52h2.44l0.14-0.33 1.93-4.61 1.22-2.9 0.141-0.33H48.76zM55.06 43.83l-2.069 4.93-1.221 2.9L51.62 52h2.439l0.15-0.34 3.29-7.83H55.06zM54.21 51.66l-1.22-2.9-1.94-4.6-0.14-0.33h-2.44l0.15 0.34 1.21 2.89 1.939 4.6L51.91 52h2.439L54.21 51.66zM47.9 51.67l-1.22-2.9-2.08-4.94h-2.43l3.3 7.83L45.61 52h2.43L47.9 51.67zM31.76 43.83l-0.14 0.34-1.94 4.6 1.22 2.9 1.93-4.61 1.22-2.9 0.14-0.33H31.76zM28.32 52h0.29l-0.14-0.34L28.32 52zM38.06 43.83l-2.07 4.93-1.22 2.9L34.62 52h2.44l0.15-0.34 3.29-7.83H38.06zM37.21 51.66l-1.22-2.9-1.94-4.6-0.14-0.33h-2.44l0.15 0.34 1.21 2.89 1.94 4.6L34.91 52h2.44L37.21 51.66zM30.9 51.67L30.76 52h0.28L30.9 51.67zM25.17 43.83l3.3 7.83 1.21-2.89-2.08-4.94H25.17z" fill="#000000" data-fill-palette-color="accent"/><polygon points="30.9,51.67 30.76,52 28.61,52 28.47,51.66 29.68,48.77 " fill="#000000" data-fill-palette-color="accent"/></svg></g></svg></g></svg></g></svg></g></svg></g></svg></g><defs/></svg>