<svg xmlns="http://www.w3.org/2000/svg" viewBox="0 0 395.52 111.59612424780428" height="111.59612424780428" width="395.52"><g><svg viewBox="0 0 569.1191200020171 160.5771845356648" height="111.59612424780428" width="395.52"><g transform="matrix(1,0,0,1,173.59912000201717,33.689676431115785)"><svg viewBox="0 0 395.52 93.19783167343323" height="93.19783167343323" width="395.52"><g><svg viewBox="0 0 395.52 93.19783167343323" height="93.19783167343323" width="395.52"><g><svg viewBox="0 0 395.52 55.15992928697701" height="55.15992928697701" width="395.52"><g transform="matrix(1,0,0,1,0,0)"><svg width="395.52" viewBox="2.25 -34.900001525878906 254.52999877929688 35.5" height="55.15992928697701" data-palette-color="#233565"><path d="M18.95 0.6Q10.75 0.6 6.5-3.8 2.25-8.2 2.25-17.15L2.25-17.15Q2.25-26.05 6.5-30.48 10.75-34.9 18.95-34.9L18.95-34.9Q25.65-34.9 29.78-31.55 33.9-28.2 33.9-21.8L33.9-21.8 28.25-21.8Q28.25-25.85 25.75-28.03 23.25-30.2 19-30.2L19-30.2Q13.35-30.2 10.68-27.13 8-24.05 7.95-17.45L7.95-17.45 7.95-16.9Q7.95-10.25 10.65-7.18 13.35-4.1 19-4.1L19-4.1Q23.4-4.1 25.93-6.23 28.45-8.35 28.45-12.4L28.45-12.4 33.9-12.4Q33.9-5.95 29.8-2.68 25.7 0.6 18.95 0.6L18.95 0.6ZM55.55 0.6Q47.35 0.6 42.85-3.88 38.35-8.35 38.35-17.15L38.35-17.15Q38.35-25.95 42.85-30.43 47.35-34.9 55.55-34.9L55.55-34.9Q63.8-34.9 68.3-30.43 72.8-25.95 72.8-17.15L72.8-17.15Q72.8-8.35 68.3-3.88 63.8 0.6 55.55 0.6L55.55 0.6ZM55.55-4.1Q67.1-4.1 67.1-16.8L67.1-16.8 67.1-17.4Q67.05-30.2 55.55-30.2L55.55-30.2Q44.1-30.2 44.05-17.4L44.05-17.4 44.05-16.8Q44.05-4.1 55.55-4.1L55.55-4.1ZM78.75 0L78.75-34.3 91.95-34.3Q100.05-34.3 104.45-30.05 108.84-25.8 108.84-17.15L108.84-17.15Q108.84-8.5 104.45-4.25 100.05 0 91.95 0L91.95 0 78.75 0ZM84.3-4.75L91.95-4.75Q97.4-4.75 100.27-7.68 103.15-10.6 103.15-16.85L103.15-16.85 103.15-17.4Q103.15-23.7 100.27-26.63 97.4-29.55 91.95-29.55L91.95-29.55 84.3-29.55 84.3-4.75ZM114.84 0L114.84-34.3 141.44-34.3 141.44-29.55 120.39-29.55 120.39-19.9 139.24-19.9 139.24-15.15 120.39-15.15 120.39-4.75 141.74-4.75 141.74 0 114.84 0ZM154.49 0L144.84-34.3 150.69-34.3 156.99-11.05Q157.34-9.8 158.14-5.95L158.14-5.95 158.39-5.95 159.34-11.05 164.54-34.3 171.94-34.3 177.29-11.05Q177.64-9.6 178.29-5.95L178.29-5.95 178.54-5.95Q179.34-9.75 179.69-11.05L179.69-11.05 185.89-34.3 191.24-34.3 181.59 0 174.64 0 169.14-23.4Q168.69-25.35 168.09-28.75L168.09-28.75 167.84-28.75Q167.29-25.05 166.89-23.4L166.89-23.4 161.44 0 154.49 0ZM195.39 0L195.39-34.3 221.99-34.3 221.99-29.55 200.94-29.55 200.94-19.9 219.79-19.9 219.79-15.15 200.94-15.15 200.94-4.75 222.29-4.75 222.29 0 195.39 0ZM228.73 0L228.73-34.3 246.23-34.3Q249.03-34.3 251.21-33.25 253.38-32.2 254.61-30.28 255.83-28.35 255.83-25.85L255.83-25.85Q255.83-23 254.26-20.9 252.69-18.8 250.13-18L250.13-18 250.13-17.8Q253.13-17.15 254.96-14.93 256.78-12.7 256.78-9.25L256.78-9.25Q256.78-4.65 253.88-2.33 250.98 0 246.23 0L246.23 0 228.73 0ZM234.28-19.95L244.98-19.95Q247.33-19.95 248.76-21.28 250.19-22.6 250.19-24.75L250.19-24.75Q250.19-27.15 248.88-28.35 247.58-29.55 245.33-29.55L245.33-29.55 234.28-29.55 234.28-19.95ZM234.28-4.75L245.83-4.75Q248.33-4.75 249.73-6 251.13-7.25 251.13-9.9L251.13-9.9Q251.13-12.5 249.69-13.85 248.23-15.2 245.44-15.2L245.44-15.2 234.28-15.2 234.28-4.75Z" opacity="1" transform="matrix(1,0,0,1,0,0)" fill="#233565" class="undefined-text-0" data-fill-palette-color="primary" id="text-0"/></svg></g></svg></g><g transform="matrix(1,0,0,1,0,68.18186475332939)"><svg viewBox="0 0 232.209792 25.015966920103835" height="25.015966920103835" width="232.209792"><g transform="matrix(1,0,0,1,0,0)"><svg width="232.209792" viewBox="2.700000047683716 -36.349998474121094 346.65997314453125 37.349998474121094" height="25.015966920103835" data-palette-color="#233565"><path d="M25.65-8.85L25.65-8.85Q25.65-4.5 22.33-1.75 19 1 13.95 1L13.95 1Q11.1 1 7.83 0.1 4.55-0.8 2.7-2.35L2.7-2.35 2.75-2.5 2.7-4.25Q2.7-8.1 3.35-11.2L3.35-11.2 6.5-11.2 8.1-4.6Q11.25-2.7 15.6-2.7L15.6-2.7 16.7-2.75Q19.5-4.15 19.5-7.4L19.5-7.4Q19.5-10.2 16.1-12.15L16.1-12.15 8.2-16.2Q2.85-19.35 2.85-24.25L2.85-24.25Q2.85-28.45 6.3-31.08 9.75-33.7 15.1-33.7L15.1-33.7Q19.2-33.7 24.15-32.05L24.15-32.05Q24.4-27.85 23.5-23.2L23.5-23.2 20.15-23.2 19.2-28.4Q16.4-30.05 12.6-30.05L12.6-30.05 11.1-30Q8.75-28.55 8.75-25.7L8.75-25.7Q8.75-23.05 12.35-21.15L12.35-21.15 19.85-17.45Q25.65-14.2 25.65-8.85ZM34.8-28.3L34.8-28.3Q32.05-29.45 30.25-31.8L30.25-31.8Q31.75-34.8 33.95-36.35L33.95-36.35Q36.5-35.2 38.3-32.65L38.3-32.65Q37.15-29.85 34.8-28.3ZM37.45-22.45L37.45-3.6Q39.75-3.2 41-2.4L41-2.4 40.8 0 28 0 27.8-1.7Q29.25-2.45 31.6-3.15L31.6-3.15 31.6-20.35 27.85-20.4 27.35-22.8Q30.8-24.2 35.2-24.45L35.2-24.45 37.45-22.45ZM53.8-4.1L53.8-4.1Q55.15-4.1 58.2-5.05L58.2-5.05 58.84-2.65 51.8 0.8Q49.8 0.9 48-0.6 46.2-2.1 46.2-3.9L46.2-3.9 46.2-19.15 42.95-19.1 42.65-21.6Q44.7-22.75 46.45-23.35L46.45-23.35 48.65-29.75 51.55-29.75 51.95-23.5 58.95-23.5 59.09-21.7 56.7-19.05 52.05-19.05 52.05-6.65Q52.05-5.25 52.42-4.67 52.8-4.1 53.8-4.1ZM79.54-12.4L66.79-12.6Q66.79-8.35 69.02-6 71.24-3.65 74.69-3.65L74.69-3.65Q77.39-3.65 81.09-5.35L81.09-5.35 81.99-3 74.19 0.7Q68.39 1 64.67-2.45 60.94-5.9 60.94-11.45L60.94-11.45Q60.94-16.85 64.42-20.73 67.89-24.6 72.84-24.6L72.84-24.6Q77.04-24.6 79.77-21.98 82.49-19.35 82.44-15.2L82.44-15.2 79.54-12.4ZM70.69-21.2L70.69-21.2Q68.04-19.7 67.14-15.6L67.14-15.6 76.89-16.1Q76.49-18.4 74.77-19.83 73.04-21.25 70.69-21.2ZM90.69-18.7L90.69-18.7Q90.69-17.2 91.94-16.28 93.19-15.35 95.79-14.2L95.79-14.2 99.14-12.5Q103.09-10.25 103.09-6.4L103.09-6.4Q103.09-3.15 100.54-1.07 97.99 1 93.94 1L93.94 1Q89.34 1 84.54-1.65L84.54-1.65 86.74-6.75Q91.24-3.5 96.34-2.5L96.34-2.5Q97.54-3.55 97.54-5.05L97.54-5.05Q97.54-6.45 96.52-7.43 95.49-8.4 91.74-10.1 87.99-11.8 86.64-13.43 85.29-15.05 85.29-17.2L85.29-17.2Q85.29-20.6 88.19-22.6 91.09-24.6 95.29-24.6L95.29-24.6Q99.14-24.6 102.14-23.05L102.14-23.05 102.19-23.05 102.24-21.85Q102.24-19.05 101.34-16.4L101.34-16.4 98.09-16.4 97.34-20.6Q94.69-21.45 92.39-21.3L92.39-21.3Q90.69-20.4 90.69-18.7ZM137.74-12.4L124.98-12.6Q124.98-8.35 127.21-6 129.44-3.65 132.88-3.65L132.88-3.65Q135.59-3.65 139.28-5.35L139.28-5.35 140.19-3 132.38 0.7Q126.58 1 122.86-2.45 119.13-5.9 119.13-11.45L119.13-11.45Q119.13-16.85 122.61-20.73 126.08-24.6 131.03-24.6L131.03-24.6Q135.23-24.6 137.96-21.98 140.69-19.35 140.63-15.2L140.63-15.2 137.74-12.4ZM128.88-21.2L128.88-21.2Q126.23-19.7 125.33-15.6L125.33-15.6 135.09-16.1Q134.69-18.4 132.96-19.83 131.23-21.25 128.88-21.2ZM180.53-8.85L180.53-8.85Q180.53-4.5 177.2-1.75 173.88 1 168.83 1L168.83 1Q165.98 1 162.7 0.1 159.43-0.8 157.58-2.35L157.58-2.35 157.63-2.5 157.58-4.25Q157.58-8.1 158.23-11.2L158.23-11.2 161.38-11.2 162.98-4.6Q166.13-2.7 170.48-2.7L170.48-2.7 171.58-2.75Q174.38-4.15 174.38-7.4L174.38-7.4Q174.38-10.2 170.98-12.15L170.98-12.15 163.08-16.2Q157.73-19.35 157.73-24.25L157.73-24.25Q157.73-28.45 161.18-31.08 164.63-33.7 169.98-33.7L169.98-33.7Q174.08-33.7 179.03-32.05L179.03-32.05Q179.28-27.85 178.38-23.2L178.38-23.2 175.03-23.2 174.08-28.4Q171.28-30.05 167.48-30.05L167.48-30.05 165.98-30Q163.63-28.55 163.63-25.7L163.63-25.7Q163.63-23.05 167.23-21.15L167.23-21.15 174.73-17.45Q180.53-14.2 180.53-8.85ZM189.68-28.3L189.68-28.3Q186.93-29.45 185.13-31.8L185.13-31.8Q186.63-34.8 188.83-36.35L188.83-36.35Q191.38-35.2 193.18-32.65L193.18-32.65Q192.03-29.85 189.68-28.3ZM192.33-22.45L192.33-3.6Q194.63-3.2 195.88-2.4L195.88-2.4 195.68 0 182.88 0 182.68-1.7Q184.13-2.45 186.48-3.15L186.48-3.15 186.48-20.35 182.73-20.4 182.23-22.8Q185.68-24.2 190.08-24.45L190.08-24.45 192.33-22.45ZM204.07-18.7L204.07-18.7Q204.07-17.2 205.32-16.28 206.57-15.35 209.17-14.2L209.17-14.2 212.52-12.5Q216.47-10.25 216.47-6.4L216.47-6.4Q216.47-3.15 213.92-1.07 211.38 1 207.32 1L207.32 1Q202.72 1 197.92-1.65L197.92-1.65 200.13-6.75Q204.63-3.5 209.72-2.5L209.72-2.5Q210.92-3.55 210.92-5.05L210.92-5.05Q210.92-6.45 209.9-7.43 208.88-8.4 205.13-10.1 201.38-11.8 200.02-13.43 198.67-15.05 198.67-17.2L198.67-17.2Q198.67-20.6 201.57-22.6 204.47-24.6 208.67-24.6L208.67-24.6Q212.52-24.6 215.52-23.05L215.52-23.05 215.57-23.05 215.63-21.85Q215.63-19.05 214.72-16.4L214.72-16.4 211.47-16.4 210.72-20.6Q208.07-21.45 205.77-21.3L205.77-21.3Q204.07-20.4 204.07-18.7ZM230.27-4.1L230.27-4.1Q231.62-4.1 234.67-5.05L234.67-5.05 235.32-2.65 228.27 0.8Q226.27 0.9 224.47-0.6 222.67-2.1 222.67-3.9L222.67-3.9 222.67-19.15 219.42-19.1 219.12-21.6Q221.17-22.75 222.92-23.35L222.92-23.35 225.12-29.75 228.02-29.75 228.42-23.5 235.42-23.5 235.57-21.7 233.17-19.05 228.52-19.05 228.52-6.65Q228.52-5.25 228.9-4.67 229.27-4.1 230.27-4.1ZM256.02-12.4L243.27-12.6Q243.27-8.35 245.5-6 247.72-3.65 251.17-3.65L251.17-3.65Q253.87-3.65 257.57-5.35L257.57-5.35 258.47-3 250.67 0.7Q244.87 1 241.14-2.45 237.42-5.9 237.42-11.45L237.42-11.45Q237.42-16.85 240.89-20.73 244.37-24.6 249.32-24.6L249.32-24.6Q253.52-24.6 256.25-21.98 258.97-19.35 258.92-15.2L258.92-15.2 256.02-12.4ZM247.17-21.2L247.17-21.2Q244.52-19.7 243.62-15.6L243.62-15.6 253.37-16.1Q252.97-18.4 251.25-19.83 249.52-21.25 247.17-21.2ZM299.87-16.4L299.87-3.6Q302.17-3.1 303.42-2.4L303.42-2.4 303.17 0 291.42 0 291.22-1.7 294.02-2.85 294.02-14.6Q294.02-19.75 290.87-19.75L290.87-19.75Q288.67-19.75 284.87-17.3L284.87-17.3 284.92-3.55Q286.92-3.15 288.27-2.4L288.27-2.4 288.02 0 276.47 0 276.27-1.7 279.07-2.85 279.07-14.6Q279.07-19.75 275.92-19.75L275.92-19.75Q273.77-19.75 270.07-17.4L270.07-17.4 270.07-3.55Q272.12-3 273.17-2.4L273.17-2.4 272.97 0 260.82 0 260.62-1.7Q261.82-2.35 264.22-3.1L264.22-3.1 264.22-20.35 260.47-20.4 259.97-22.8Q263.42-24.2 267.82-24.45L267.82-24.45 270.07-22.35 270.07-19.8Q276.02-24 278.92-24.4L278.92-24.4Q280.42-24.2 281.94-23.25 283.47-22.3 284.27-20.95L284.27-20.95Q284.57-20.4 284.72-19.6L284.72-19.6Q290.57-23.85 293.87-24.4L293.87-24.4Q295.37-24.2 296.89-23.25 298.42-22.3 299.22-20.95L299.22-20.95Q299.82-19.85 299.87-16.4L299.87-16.4ZM328.47-4.2L329.06-2 323.52 0.8Q322.56 0.7 321.31-0.33 320.06-1.35 319.42-2.75L319.42-2.75 313.92 0.7 312.56 0.8Q309.52 0.8 307.54-1 305.56-2.8 305.56-5.35L305.56-5.35Q305.56-8.95 309.27-10.9L309.27-10.9 318.92-11.15 318.92-15.95Q318.92-19.95 316.52-21.2L316.52-21.2Q313.87-21.1 311.81-20.4L311.81-20.4 311.17-15.1 307.77-14.95Q306.42-17.75 306.52-21.45L306.52-21.45Q308.97-22.7 312.74-23.75 316.52-24.8 318.27-24.8L318.27-24.8Q319.97-24.8 321.64-23.73 323.31-22.65 324.22-21.25L324.22-21.25Q324.77-20.25 324.81-17.45L324.81-17.45 324.81-4.9Q324.81-3.85 326.06-3.85L326.06-3.85 328.47-4.2ZM312.72-3.3L312.72-3.3Q315.12-3.3 318.92-4.8L318.92-4.8 318.92-8.4 317.17-8.45Q311.56-8.45 311.56-5.55L311.56-5.55Q311.56-4.1 312.72-3.3ZM336.96-18.7L336.96-18.7Q336.96-17.2 338.21-16.28 339.46-15.35 342.06-14.2L342.06-14.2 345.41-12.5Q349.36-10.25 349.36-6.4L349.36-6.4Q349.36-3.15 346.81-1.07 344.26 1 340.21 1L340.21 1Q335.61 1 330.81-1.65L330.81-1.65 333.01-6.75Q337.51-3.5 342.61-2.5L342.61-2.5Q343.81-3.55 343.81-5.05L343.81-5.05Q343.81-6.45 342.79-7.43 341.76-8.4 338.01-10.1 334.26-11.8 332.91-13.43 331.56-15.05 331.56-17.2L331.56-17.2Q331.56-20.6 334.46-22.6 337.36-24.6 341.56-24.6L341.56-24.6Q345.41-24.6 348.41-23.05L348.41-23.05 348.46-23.05 348.51-21.85Q348.51-19.05 347.61-16.4L347.61-16.4 344.36-16.4 343.61-20.6Q340.96-21.45 338.66-21.3L338.66-21.3Q336.96-20.4 336.96-18.7Z" opacity="1" transform="matrix(1,0,0,1,0,0)" fill="#233565" class="undefined-text-1" data-fill-palette-color="secondary" id="text-1"/></svg></g></svg></g></svg></g></svg></g><g><svg viewBox="0 0 160.5771845356648 160.5771845356648" height="160.5771845356648" width="160.5771845356648"><g><svg/></g><g id="icon-0"><svg viewBox="0 0 160.5771845356648 160.5771845356648" height="160.5771845356648" width="160.5771845356648"><g><rect width="146.00629186483596" height="146.00629186483596" x="7.28544633541442" y="7.28544633541442" fill="#8bd8bc" data-fill-palette-color="accent"/><rect width="146.00629186483596" height="146.00629186483596" x="14.57089267082884" y="0" fill="#8bd8bc" opacity="0.5" data-fill-palette-color="accent"/></g><g transform="matrix(1,0,0,1,20.81556095832692,43.928151045865185)"><svg viewBox="0 0 118.94606261901096 72.72088244393443" height="72.72088244393443" width="118.94606261901096"><g><svg xmlns="http://www.w3.org/2000/svg" xmlns:xlink="http://www.w3.org/1999/xlink" version="1.1" x="0" y="0" viewBox="9.039999961853027 25.45800018310547 81.91999816894531 50.08399963378906" enable-background="new 0 0 100 100" xml:space="preserve" height="72.72088244393443" width="118.94606261901096" class="icon-c-0" data-fill-palette-color="background" id="c-0"><path d="M81.268 25.458H18.562c-1.573 0-2.853 1.272-2.853 2.846v37.172c0 1.573 1.279 2.847 2.853 2.847h62.704c1.573 0 2.854-1.272 2.854-2.847V28.305C84.119 26.731 82.84 25.458 81.268 25.458zM50.031 26.252c0.882 0 1.594 0.718 1.594 1.601 0 0.882-0.712 1.594-1.594 1.594-0.882 0-1.601-0.711-1.601-1.594C48.43 26.97 49.148 26.252 50.031 26.252zM80.016 60.859c0 1.574-1.279 2.847-2.854 2.847H22.667c-1.573 0-2.853-1.272-2.853-2.847V33.264c0-1.574 1.279-2.846 2.853-2.846h54.495c1.572 0 2.854 1.272 2.854 2.846V60.859z" fill="#ffffff" data-fill-palette-color="background"/><path d="M90.96 70.639c0 3.264-2.642 4.903-5.897 4.903H14.944c-3.263 0-5.904-1.642-5.904-4.903h27.924c0.691 0.719 1.663 1.17 2.744 1.17h18.36c1.08 0 2.053-0.451 2.744-1.17H90.96z" fill="#ffffff" data-fill-palette-color="background"/><path d="M65.76 43.83l-0.14 0.34-1.94 4.6-1.21 2.89L62.32 52h2.439l0.141-0.33 1.93-4.61 1.22-2.9 0.141-0.33H65.76zM72.06 43.83l-2.069 4.93-1.221 2.9L68.62 52h2.439l0.15-0.34 3.29-7.83H72.06zM71.21 51.66l-1.22-2.9-1.94-4.6-0.14-0.33h-2.44l0.15 0.34 1.21 2.89 1.939 4.6L68.91 52h2.439L71.21 51.66zM64.9 51.67l-1.221-2.9-2.08-4.94h-2.43l3.3 7.83L62.61 52h2.43L64.9 51.67zM48.76 43.83l-0.14 0.34-1.94 4.6-1.21 2.89L45.32 52h2.44l0.14-0.33 1.93-4.61 1.22-2.9 0.141-0.33H48.76zM55.06 43.83l-2.069 4.93-1.221 2.9L51.62 52h2.439l0.15-0.34 3.29-7.83H55.06zM54.21 51.66l-1.22-2.9-1.94-4.6-0.14-0.33h-2.44l0.15 0.34 1.21 2.89 1.939 4.6L51.91 52h2.439L54.21 51.66zM47.9 51.67l-1.22-2.9-2.08-4.94h-2.43l3.3 7.83L45.61 52h2.43L47.9 51.67zM31.76 43.83l-0.14 0.34-1.94 4.6 1.22 2.9 1.93-4.61 1.22-2.9 0.14-0.33H31.76zM28.32 52h0.29l-0.14-0.34L28.32 52zM38.06 43.83l-2.07 4.93-1.22 2.9L34.62 52h2.44l0.15-0.34 3.29-7.83H38.06zM37.21 51.66l-1.22-2.9-1.94-4.6-0.14-0.33h-2.44l0.15 0.34 1.21 2.89 1.94 4.6L34.91 52h2.44L37.21 51.66zM30.9 51.67L30.76 52h0.28L30.9 51.67zM25.17 43.83l3.3 7.83 1.21-2.89-2.08-4.94H25.17z" fill="#ffffff" data-fill-palette-color="background"/><polygon points="30.9,51.67 30.76,52 28.61,52 28.47,51.66 29.68,48.77 " fill="#ffffff" data-fill-palette-color="background"/></svg></g></svg></g></svg></g></svg></g></svg></g><defs/></svg>